<svg width="76" height="77" viewBox="0 0 76 77" fill="none" xmlns="http://www.w3.org/2000/svg">
<rect y="0.651367" width="76" height="76" rx="10" fill="#21201E"/>
<path d="M19.8688 24.5551C20.3384 22.553 21.9017 20.9898 23.9037 20.5201V20.5201C25.6388 20.1131 27.4445 20.1131 29.1796 20.5201V20.5201C31.1817 20.9898 32.7449 22.553 33.2146 24.5551V24.5551C33.6216 26.2902 33.6216 28.0959 33.2146 29.831V29.831C32.7449 31.833 31.1817 33.3963 29.1796 33.8659V33.8659C27.4445 34.2729 25.6388 34.2729 23.9037 33.8659V33.8659C21.9017 33.3963 20.3384 31.8331 19.8688 29.831V29.831C19.4618 28.0959 19.4618 26.2902 19.8688 24.5551V24.5551Z" stroke="white" stroke-width="3.125"/>
<path d="M19.8688 47.4718C20.3384 45.4697 21.9017 43.9065 23.9037 43.4368V43.4368C25.6388 43.0298 27.4445 43.0298 29.1796 43.4368V43.4368C31.1817 43.9065 32.7449 45.4697 33.2146 47.4718V47.4718C33.6216 49.2069 33.6216 51.0126 33.2146 52.7476V52.7476C32.7449 54.7497 31.1817 56.313 29.1796 56.7826V56.7826C27.4445 57.1896 25.6388 57.1896 23.9037 56.7826V56.7826C21.9017 56.313 20.3384 54.7497 19.8688 52.7476V52.7476C19.4618 51.0126 19.4618 49.2069 19.8688 47.4718V47.4718Z" stroke="#ED9902" stroke-width="3.125"/>
<path d="M42.7854 24.5551C43.2551 22.553 44.8183 20.9898 46.8204 20.5201V20.5201C48.5555 20.1131 50.3612 20.1131 52.0963 20.5201V20.5201C54.0984 20.9898 55.6616 22.553 56.1312 24.5551V24.5551C56.5382 26.2902 56.5382 28.0959 56.1312 29.831V29.831C55.6616 31.833 54.0984 33.3963 52.0963 33.8659V33.8659C50.3612 34.2729 48.5555 34.2729 46.8204 33.8659V33.8659C44.8183 33.3963 43.2551 31.8331 42.7854 29.831V29.831C42.3785 28.0959 42.3785 26.2902 42.7854 24.5551V24.5551Z" stroke="white" stroke-width="3.125"/>
<path d="M42.7854 47.4718C43.2551 45.4697 44.8183 43.9065 46.8204 43.4368V43.4368C48.5555 43.0298 50.3612 43.0298 52.0963 43.4368V43.4368C54.0984 43.9065 55.6616 45.4697 56.1312 47.4718V47.4718C56.5382 49.2069 56.5382 51.0126 56.1312 52.7476V52.7476C55.6616 54.7497 54.0984 56.313 52.0963 56.7826V56.7826C50.3612 57.1896 48.5555 57.1896 46.8204 56.7826V56.7826C44.8183 56.313 43.2551 54.7497 42.7854 52.7476V52.7476C42.3785 51.0126 42.3785 49.2069 42.7854 47.4718V47.4718Z" stroke="white" stroke-width="3.125"/>
</svg>
