<svg width="76" height="77" viewBox="0 0 76 77" fill="none" xmlns="http://www.w3.org/2000/svg">
<rect y="0.651367" width="76" height="76" rx="10" fill="#21201E"/>
<path d="M17.1667 49.1114L17.1667 40.8213L17.2175 40.0637C17.8709 30.315 24.8166 22.218 34.179 20.2907C36.7011 19.7716 39.299 19.7716 41.8211 20.2907C51.1834 22.218 58.1291 30.315 58.7826 40.0637L58.8334 40.8213V49.1114M45.4783 50.7371C45.1257 48.8811 45.1257 46.973 45.4783 45.117C46.0451 42.1339 48.2043 39.731 51.0621 38.9034L51.6682 38.7278C52.2983 38.5454 52.95 38.4528 53.6048 38.4528C56.4925 38.4528 58.8333 40.8481 58.8333 43.8027V52.0514C58.8333 55.0061 56.4925 57.4014 53.6048 57.4014C52.95 57.4014 52.2983 57.3088 51.6682 57.1263L51.0621 56.9508C48.2043 56.1231 46.0451 53.7203 45.4783 50.7371ZM30.5217 50.7371C30.8743 48.8811 30.8743 46.973 30.5217 45.117C29.955 42.1339 27.7957 39.731 24.9379 38.9034L24.3318 38.7278C23.7017 38.5454 23.05 38.4528 22.3952 38.4528C19.5076 38.4528 17.1667 40.8481 17.1667 43.8027L17.1667 52.0514C17.1667 55.0061 19.5076 57.4014 22.3952 57.4014C23.05 57.4014 23.7017 57.3088 24.3318 57.1263L24.9379 56.9508C27.7957 56.1231 29.955 53.7203 30.5217 50.7371Z" stroke="white" stroke-width="3.125"/>
<path d="M58.8333 52.0514C58.8333 55.0061 56.4925 57.4013 53.6048 57.4013C52.95 57.4013 52.2983 57.3088 51.6682 57.1263L51.0621 56.9507C48.2043 56.1231 46.0451 53.7202 45.4783 50.7371C45.1257 48.8811 45.1257 46.973 45.4783 45.117C46.0451 42.1339 48.2043 39.731 51.0621 38.9034L51.6682 38.7278C52.2983 38.5453 52.95 38.4528 53.6048 38.4528C56.4925 38.4528 58.8333 40.848 58.8333 43.8027V52.0514Z" stroke="#ED9902" stroke-width="3.125"/>
<path d="M17.1667 52.0514C17.1667 55.0061 19.5076 57.4013 22.3952 57.4013C23.05 57.4013 23.7017 57.3088 24.3318 57.1263L24.9379 56.9507C27.7957 56.1231 29.955 53.7202 30.5217 50.7371C30.8743 48.8811 30.8743 46.973 30.5217 45.117C29.955 42.1339 27.7957 39.731 24.9379 38.9033L24.3318 38.7278C23.7017 38.5453 23.05 38.4528 22.3952 38.4528C19.5076 38.4528 17.1667 40.848 17.1667 43.8027L17.1667 52.0514Z" stroke="#ED9902" stroke-width="3.125"/>
</svg>
