<svg width="76" height="77" viewBox="0 0 76 77" fill="none" xmlns="http://www.w3.org/2000/svg">
<rect y="0.651367" width="76" height="76" rx="10" fill="#21201E"/>
<path d="M41.6495 23.4291C41.6495 21.6897 40.3783 20.2114 38.6585 19.951C38.222 19.8848 37.778 19.8848 37.3415 19.951C35.6217 20.2114 34.3505 21.6897 34.3505 23.4291V25.8888C33.368 26.1692 32.432 26.5601 31.5568 27.047L29.8168 25.307C28.5868 24.0771 26.6427 23.9307 25.2424 24.9626C24.887 25.2245 24.5731 25.5384 24.3112 25.8938C23.2793 27.2941 23.4257 29.2382 24.6556 30.4682L26.3957 32.2082C25.9087 33.0834 25.5179 34.0193 25.2374 35.0019H22.7777C21.0383 35.0019 19.5601 36.2731 19.2996 37.9929C19.2335 38.4294 19.2335 38.8734 19.2996 39.3099C19.5601 41.0296 21.0383 42.3008 22.7777 42.3008H25.2374C25.5179 43.2834 25.9087 44.2194 26.3957 45.0946L24.6556 46.8346C23.4257 48.0645 23.2793 50.0087 24.3112 51.4089C24.5731 51.7643 24.887 52.0783 25.2425 52.3402C26.6427 53.3721 28.5868 53.2257 29.8168 51.9957L31.5568 50.2557C32.432 50.7427 33.368 51.1335 34.3505 51.414V53.8737C34.3505 55.6131 35.6217 57.0913 37.3415 57.3518C37.778 57.4179 38.222 57.4179 38.6585 57.3518C40.3783 57.0913 41.6495 55.6131 41.6495 53.8737V51.414C42.632 51.1335 43.568 50.7427 44.4432 50.2557L46.1832 51.9958C47.4131 53.2257 49.3573 53.3721 50.7576 52.3402C51.113 52.0783 51.4269 51.7644 51.6888 51.4089C52.7207 50.0087 52.5743 48.0645 51.3444 46.8346L49.6044 45.0946C50.0913 44.2194 50.4822 43.2834 50.7626 42.3008H53.2223C54.9617 42.3008 56.4399 41.0296 56.7004 39.3099C56.7665 38.8734 56.7665 38.4294 56.7004 37.9929C56.4399 36.2731 54.9617 35.0019 53.2223 35.0019H50.7626C50.4822 34.0193 50.0913 33.0833 49.6044 32.2082L51.3444 30.4681C52.5743 29.2382 52.7207 27.2941 51.6888 25.8938C51.4269 25.5384 51.113 25.2245 50.7576 24.9626C49.3573 23.9307 47.4132 24.0771 46.1832 25.307L44.4432 27.047C43.568 26.5601 42.632 26.1692 41.6495 25.8888V23.4291Z" stroke="#ED9902" stroke-width="3.125" stroke-linecap="round" stroke-linejoin="round"/>
<path d="M50.7576 52.3402C49.3573 53.3721 47.4131 53.2257 46.1832 51.9958L44.4432 50.2557C43.568 50.7427 42.632 51.1335 41.6495 51.414V53.8737C41.6495 55.6131 40.3783 57.0913 38.6585 57.3518C38.222 57.4179 37.778 57.4179 37.3415 57.3518C35.6217 57.0913 34.3505 55.6131 34.3505 53.8737V51.414C33.368 51.1335 32.432 50.7427 31.5568 50.2557L29.8168 51.9957C28.5868 53.2257 26.6427 53.3721 25.2425 52.3402C24.887 52.0783 24.5731 51.7643 24.3112 51.4089C23.2793 50.0087 23.4257 48.0645 24.6556 46.8346L26.3957 45.0946C25.9087 44.2194 25.5179 43.2834 25.2374 42.3008H22.7777C21.0383 42.3008 19.5601 41.0296 19.2996 39.3099C19.2335 38.8734 19.2335 38.4294 19.2996 37.9929C19.5601 36.2731 21.0383 35.0019 22.7777 35.0019H25.2374C25.5179 34.0193 25.9087 33.0834 26.3957 32.2082L24.6556 30.4682C23.4257 29.2382 23.2793 27.2941 24.3112 25.8938C24.5731 25.5384 24.887 25.2245 25.2424 24.9626C26.6427 23.9307 28.5868 24.0771 29.8168 25.307L31.5568 27.047C32.432 26.5601 33.368 26.1692 34.3505 25.8888V23.4291C34.3505 21.6897 35.6217 20.2114 37.3415 19.951C37.778 19.8848 38.222 19.8848 38.6585 19.951C40.3783 20.2114 41.6495 21.6897 41.6495 23.4291V25.8888C42.632 26.1692 43.568 26.5601 44.4432 27.047L46.1832 25.307C47.4132 24.0771 49.3573 23.9307 50.7576 24.9626" stroke="white" stroke-width="3.125" stroke-linecap="round" stroke-linejoin="round"/>
<path d="M32.7917 38.6514C32.7917 35.7749 35.1235 33.4431 38 33.4431C40.8765 33.4431 43.2083 35.7749 43.2083 38.6514C43.2083 41.5279 40.8765 43.8597 38 43.8597C35.1235 43.8597 32.7917 41.5279 32.7917 38.6514Z" stroke="#ED9902" stroke-width="3.125"/>
</svg>
