<svg width="76" height="77" viewBox="0 0 76 77" fill="none" xmlns="http://www.w3.org/2000/svg">
<rect y="0.651367" width="76" height="76" rx="10" fill="#21201E"/>
<path d="M51.0725 46.5797V45.0172V46.5797ZM57.6129 38.2155L56.0851 38.5429L56.0851 38.5429L57.6129 38.2155ZM57.636 38.3228L59.1638 37.9954L59.1638 37.9954L57.636 38.3228ZM57.636 41.2627L56.1082 40.9353V40.9353L57.636 41.2627ZM51.182 33.0059V31.4434V33.0059ZM49.0413 46.5797L47.5289 46.187L47.0212 48.1422H49.0413V46.5797ZM50.3309 33.0059V31.4434H48.664L48.7716 33.1067L50.3309 33.0059ZM51.0725 45.0172H50.0539V48.1422H51.0725V45.0172ZM56.0851 38.5429L56.1082 38.6503L59.1638 37.9954L59.1408 37.888L56.0851 38.5429ZM56.1082 38.6503C56.2695 39.4033 56.2695 40.1822 56.1082 40.9353L59.1638 41.5901C59.4177 40.4054 59.4177 39.1801 59.1638 37.9954L56.1082 38.6503ZM51.0725 48.1422C54.9762 48.1422 58.3452 45.4096 59.1638 41.5901L56.1082 40.9353C55.5972 43.3193 53.4971 45.0172 51.0725 45.0172V48.1422ZM51.182 34.5684C53.5428 34.5684 55.5876 36.2215 56.0851 38.5429L59.1408 37.8881C58.3356 34.1312 55.0218 31.4434 51.182 31.4434V34.5684ZM50.0539 45.0172H49.0413V48.1422H50.0539V45.0172ZM48.7716 33.1067C49.0561 37.5047 48.6367 41.9208 47.5289 46.187L50.5536 46.9724C51.745 42.3842 52.196 37.6349 51.8901 32.905L48.7716 33.1067ZM51.182 31.4434H50.3309V34.5684H51.182V31.4434Z" fill="#ED9902"/>
<path d="M28.153 20.3652L27.917 18.8206L28.153 20.3652ZM40.3664 20.3652L40.6024 18.8206L40.3664 20.3652ZM39.7371 56.9189L40.0102 58.4574L39.7371 56.9189ZM28.7823 56.9189L29.0554 55.3805L29.0554 55.3805L28.7823 56.9189ZM20.3935 49.6951L21.8865 49.2344L20.3935 49.6951ZM18.5406 29.4978L16.9887 29.3165L18.5406 29.4978ZM50.1299 30.7908L48.5779 30.9722V30.9722L50.1299 30.7908ZM48.5097 48.4515L47.0167 47.9907L47.0167 47.9907L48.5097 48.4515ZM18.6161 28.8521L20.168 29.0334L18.6161 28.8521ZM26.5581 20.6089L26.7941 22.1535L26.5581 20.6089ZM28.503 56.8693L28.2298 58.4078H28.2298L28.503 56.8693ZM48.2097 49.4234L49.7027 49.8842V49.8842L48.2097 49.4234ZM49.9562 29.3048L51.5081 29.1234V29.1234L49.9562 29.3048ZM41.5118 20.5402L41.2759 22.0848L41.5118 20.5402ZM49.0412 46.5798L47.5289 46.1871L49.0412 46.5798ZM50.3308 33.006L48.7716 33.1068L50.3308 33.006ZM48.4043 29.4862L48.5779 30.9722L51.6818 30.6094L51.5081 29.1234L48.4043 29.4862ZM47.0167 47.9907L46.7167 48.9627L49.7027 49.8842L50.0027 48.9123L47.0167 47.9907ZM20.0926 29.6792L20.168 29.0334L17.0642 28.6707L16.9887 29.3165L20.0926 29.6792ZM29.0554 55.3805L28.7761 55.3309L28.2298 58.4078L28.5092 58.4574L29.0554 55.3805ZM26.7941 22.1535L28.389 21.9098L27.917 18.8206L26.3221 19.0643L26.7941 22.1535ZM40.1304 21.9098L41.2759 22.0848L41.7478 18.9956L40.6024 18.8206L40.1304 21.9098ZM28.389 21.9098C32.2803 21.3152 36.239 21.3152 40.1304 21.9098L40.6024 18.8206C36.3982 18.1783 32.1212 18.1783 27.917 18.8206L28.389 21.9098ZM39.464 55.3805C36.0212 55.9917 32.4981 55.9917 29.0554 55.3805L28.5091 58.4574C32.3132 59.1327 36.2061 59.1327 40.0102 58.4574L39.464 55.3805ZM21.8865 49.2344C19.9355 42.9127 19.3244 36.2518 20.0926 29.6792L16.9887 29.3165C16.1701 36.3206 16.8213 43.419 18.9005 50.1559L21.8865 49.2344ZM20.168 29.0334C20.5807 25.5024 23.2956 22.688 26.7941 22.1535L26.3221 19.0643C21.4275 19.8121 17.6396 23.747 17.0642 28.6707L20.168 29.0334ZM18.9005 50.1559C20.2224 54.4391 23.8219 57.6252 28.2298 58.4078L28.7761 55.3309C25.5243 54.7536 22.8642 52.4021 21.8865 49.2344L18.9005 50.1559ZM46.7167 48.9627C45.6875 52.2972 42.8872 54.7728 39.464 55.3805L40.0102 58.4574C44.5897 57.6444 48.3293 54.3342 49.7027 49.8842L46.7167 48.9627ZM51.5081 29.1234C50.9014 23.9324 46.9079 19.784 41.7478 18.9956L41.2759 22.0848C45.0398 22.6599 47.9603 25.6878 48.4043 29.4862L51.5081 29.1234ZM47.5289 46.1871C47.3719 46.7915 47.2012 47.3929 47.0167 47.9907L50.0027 48.9123C50.2011 48.2693 50.3848 47.6225 50.5536 46.9725L47.5289 46.1871ZM48.5779 30.9722C48.661 31.6828 48.7255 32.3946 48.7716 33.1068L51.8901 32.9051C51.8405 32.1391 51.7711 31.3736 51.6818 30.6094L48.5779 30.9722ZM48.7716 33.1068C49.056 37.5049 48.6367 41.921 47.5289 46.1871L50.5536 46.9725C51.745 42.3844 52.196 37.635 51.8901 32.9051L48.7716 33.1068Z" fill="white"/>
<path d="M25.5 37.6097V39.2013C25.5 42.2648 26.2133 45.2863 27.5833 48.0264" stroke="#ED9902" stroke-width="3.125" stroke-linecap="round"/>
</svg>
