<svg width="76" height="77" viewBox="0 0 76 77" fill="none" xmlns="http://www.w3.org/2000/svg">
<rect y="0.651367" width="76" height="76" rx="10" fill="#21201E"/>
<path d="M46.0737 54.2501L46.4498 53.99C47.6269 53.1761 48.2156 52.769 48.7421 52.3327C51.603 49.9615 53.5245 46.6564 54.1641 43.0067C54.2818 42.335 54.3429 41.6244 54.4653 40.2033L54.5285 39.4685C54.731 37.1163 54.7108 34.7503 54.4682 32.4019L54.3932 31.6751C53.9686 27.5653 51.4456 23.9633 47.7175 22.1443C41.5878 19.1537 34.4122 19.1537 28.2825 22.1443C24.5543 23.9633 22.0313 27.5653 21.6068 31.6751L21.5317 32.4019C21.2891 34.7503 21.269 37.1163 21.4714 39.4685L21.5347 40.2033C21.657 41.6244 21.7182 42.335 21.8359 43.0067C22.4754 46.6564 24.397 49.9615 27.2579 52.3327C27.7844 52.769 28.3731 53.1761 29.5501 53.99L29.9263 54.2501C31.5265 55.3567 32.3267 55.91 33.1286 56.2945C36.2068 57.7703 39.7931 57.7703 42.8713 56.2945C43.6733 55.91 44.4734 55.3567 46.0737 54.2501Z" stroke="#ED9902" stroke-width="3.125"/>
<path d="M54.4653 40.2033L54.5285 39.4685C54.731 37.1163 54.7108 34.7503 54.4682 32.4019L54.3932 31.6751C53.9686 27.5653 51.4456 23.9633 47.7175 22.1443C41.5878 19.1537 34.4122 19.1537 28.2825 22.1443C24.5543 23.9633 22.0313 27.5653 21.6068 31.6751L21.5317 32.4019C21.2891 34.7503 21.269 37.1163 21.4714 39.4685L21.5347 40.2033C21.657 41.6244 21.7182 42.335 21.8359 43.0067C22.4754 46.6564 24.397 49.9615 27.2579 52.3327C27.7844 52.769 28.3731 53.1761 29.5501 53.99L29.9263 54.2501C31.5265 55.3567 32.3267 55.91 33.1286 56.2945" stroke="white" stroke-width="3.125" stroke-linecap="round"/>
<path d="M32.2708 38.1306L36.4375 42.2972L43.7291 34.4847" stroke="#ED9902" stroke-width="3.125" stroke-linecap="round" stroke-linejoin="round"/>
</svg>
