<svg width="76" height="77" viewBox="0 0 76 77" fill="none" xmlns="http://www.w3.org/2000/svg">
<rect y="0.651367" width="76" height="76" rx="10" fill="#21201E"/>
<path d="M24.4584 32.4014H20.2917" stroke="#ED9902" stroke-width="3.125" stroke-linecap="round"/>
<path d="M23.4166 44.9014L21.3333 44.9014" stroke="#ED9902" stroke-width="3.125" stroke-linecap="round"/>
<path d="M21.3334 38.6514H17.1667" stroke="#ED9902" stroke-width="3.125" stroke-linecap="round"/>
<path d="M38.0852 40.2449C38.9481 40.2449 39.6477 39.5453 39.6477 38.6824C39.6477 37.8194 38.9481 37.1199 38.0852 37.1199V40.2449ZM32.3082 40.2449H38.0852V37.1199H32.3082V40.2449Z" fill="#ED9902"/>
<path d="M55.7899 33.3948L37.6602 23.6692C33.2974 21.3289 28.4556 25.7653 29.9402 30.7428L32.1303 38.0859C32.2464 38.4751 32.2462 38.8898 32.1297 39.2789L29.9516 46.5537C28.4622 51.5284 33.2971 55.9703 37.6622 53.6376L55.7824 43.9541C59.8469 41.7821 59.8513 35.5734 55.7899 33.3948Z" stroke="white" stroke-width="3.125"/>
</svg>
